<svg xmlns="http://www.w3.org/2000/svg" viewBox="0 0 428.87 50.9"><defs><style>.cls-1{fill:#fff;}</style></defs><title>Recurso 1</title><g id="Capa_2" data-name="Capa 2"><g id="Capa_2-2" data-name="Capa 2"><polygon class="cls-1" points="50.9 40.72 61.08 30.54 50.9 20.36 50.9 40.72"/><path class="cls-1" d="M169,34.19h14.33a10,10,0,0,0,4.16-.87,11.21,11.21,0,0,0,3.4-2.32,11.5,11.5,0,0,0,2.33-3.39,10.25,10.25,0,0,0,.87-4.17,10.22,10.22,0,0,0-3.2-7.65,10.13,10.13,0,0,0-7.56-3.2H169a10,10,0,0,0-7.66,3.2,10.74,10.74,0,0,0-3.1,7.65V37.78A10.43,10.43,0,0,0,169,48.54h14.33a10.31,10.31,0,0,0,7.56-3.1,10.58,10.58,0,0,0,3.2-7.75,17.4,17.4,0,0,1-10.76,3.68H169a3.63,3.63,0,0,1-2.57-6.16A3.48,3.48,0,0,1,169,34.19Zm-2.57-13.32a3.44,3.44,0,0,1,2.57-1h14.33a3.56,3.56,0,0,1,2.52,6.1A3.45,3.45,0,0,1,183.29,27H169a3.5,3.5,0,0,1-3.6-3.59A3.47,3.47,0,0,1,166.39,20.87Z"/><path class="cls-1" d="M76.49,20.76a3.46,3.46,0,0,1,2.57-1H93.44a17.84,17.84,0,0,1,5.68,1,18.63,18.63,0,0,1,5.1,2.63,10,10,0,0,0-3.2-7.57,10.16,10.16,0,0,0-7.58-3.21H79.06a10.88,10.88,0,0,0-4.28.82,11.16,11.16,0,0,0-3.4,2.28,10.64,10.64,0,0,0-2.28,3.46,11.12,11.12,0,0,0-.83,4.32V37.75a10.13,10.13,0,0,0,.87,4.18,11.3,11.3,0,0,0,5.74,5.73,10.1,10.1,0,0,0,4.18.88H93.44a10.13,10.13,0,0,0,4.17-.88A11.41,11.41,0,0,0,101,45.33a11.21,11.21,0,0,0,2.32-3.4,10,10,0,0,0,.88-4.18,17.43,17.43,0,0,1-10.78,3.6H79.06a3.65,3.65,0,0,1-3.6-3.6V23.34A3.52,3.52,0,0,1,76.49,20.76Z"/><path class="cls-1" d="M126.87,20.76a3.47,3.47,0,0,1,2.57-1h14.38a17.84,17.84,0,0,1,5.68,1,18.63,18.63,0,0,1,5.1,2.63,10,10,0,0,0-3.2-7.57,10.16,10.16,0,0,0-7.58-3.21H129.44a10.8,10.8,0,0,0-4.27.82,11.08,11.08,0,0,0-3.41,2.28,10.64,10.64,0,0,0-2.28,3.46,11.12,11.12,0,0,0-.82,4.32V37.75a10.13,10.13,0,0,0,.87,4.18,11.24,11.24,0,0,0,2.33,3.4,11.36,11.36,0,0,0,3.4,2.33,10.14,10.14,0,0,0,4.18.88h14.38a10.09,10.09,0,0,0,4.17-.88,11.2,11.2,0,0,0,5.74-5.73,10.13,10.13,0,0,0,.87-4.18,17.41,17.41,0,0,1-10.78,3.6H129.44a3.65,3.65,0,0,1-3.6-3.6V23.34A3.52,3.52,0,0,1,126.87,20.76Z"/><path class="cls-1" d="M107.86,23V42.81a18.09,18.09,0,0,1-.9,5.73,10.39,10.39,0,0,0,4.89-2.78,10.52,10.52,0,0,0,3.21-7.7V18.28a17.71,17.71,0,0,1,.91-5.72,10.27,10.27,0,0,0-4.9,2.77A10.52,10.52,0,0,0,107.86,23Z"/><polygon class="cls-1" points="202.91 25.49 202.91 12.55 201.38 12.55 201.38 26.86 209.57 26.86 209.57 25.49 202.91 25.49"/><path class="cls-1" d="M219.73,26.86h1.63l-5.25-14.31h-1.28l-5.26,14.31h1.62l1.15-3.24h6.25ZM212.8,22.3l2.69-7.56,2.65,7.56Z"/><polygon class="cls-1" points="236.24 25.49 228.89 25.49 228.89 20.33 235.16 20.33 235.16 18.96 228.89 18.96 228.89 13.92 236.24 13.92 236.24 12.55 227.36 12.55 227.36 26.86 236.24 26.86 236.24 25.49"/><path class="cls-1" d="M247,22.92a3.57,3.57,0,0,0-1.2-2.83,4.55,4.55,0,0,0-2.61-1l-1.57-.24a4.14,4.14,0,0,1-1.93-.78,2.08,2.08,0,0,1-.64-1.65c0-1.59,1.1-2.65,3-2.65A4.54,4.54,0,0,1,245.42,15l1-1a5.76,5.76,0,0,0-4.26-1.57c-2.83,0-4.58,1.61-4.58,4a3.38,3.38,0,0,0,1.09,2.67,5.18,5.18,0,0,0,2.63,1.09l1.67.26a3.07,3.07,0,0,1,1.86.68A2.29,2.29,0,0,1,245.5,23c0,1.67-1.29,2.65-3.38,2.65A4.89,4.89,0,0,1,238.23,24l-1,1.05a6.25,6.25,0,0,0,4.9,1.88C245.06,27,247,25.43,247,22.92Z"/><path class="cls-1" d="M258.41,22.72h-1.52a3.42,3.42,0,0,1-3.44,2.89,3.47,3.47,0,0,1-2.47-1c-.9-.93-1-1.91-1-4.9s.1-4,1-4.91a3.47,3.47,0,0,1,2.47-1,3.38,3.38,0,0,1,3.4,2.89h1.56a4.82,4.82,0,0,0-5-4.26,5.11,5.11,0,0,0-3.65,1.49c-1.35,1.35-1.35,2.75-1.35,5.79s0,4.43,1.35,5.78A5.1,5.1,0,0,0,253.45,27,4.82,4.82,0,0,0,258.41,22.72Z"/><path class="cls-1" d="M270.3,22.13V12.55h-1.53V22a3.47,3.47,0,1,1-6.93,0V12.55h-1.52v9.58a5,5,0,0,0,10,0Z"/><polygon class="cls-1" points="281.43 25.49 274.07 25.49 274.07 20.33 280.34 20.33 280.34 18.96 274.07 18.96 274.07 13.92 281.43 13.92 281.43 12.55 272.55 12.55 272.55 26.86 281.43 26.86 281.43 25.49"/><polygon class="cls-1" points="285.12 25.49 285.12 12.55 283.59 12.55 283.59 26.86 291.78 26.86 291.78 25.49 285.12 25.49"/><path class="cls-1" d="M297,12.55l-5.26,14.31h1.63l1.14-3.24h6.25l1.14,3.24h1.63l-5.24-14.31Zm-2,9.75,2.7-7.56,2.65,7.56Z"/><path class="cls-1" d="M311.83,21h3.8a4.09,4.09,0,0,0,4.42-4.22,4.07,4.07,0,0,0-4.42-4.2h-5.32V26.86h1.52Zm0-7h3.66c1.78,0,3,.94,3,2.83a2.72,2.72,0,0,1-3,2.86h-3.66Z"/><path class="cls-1" d="M323.48,20.51h3.43l3.26,6.35H332l-3.4-6.49a3.72,3.72,0,0,0,3.12-3.84c0-2.47-1.75-4-4.24-4H322V26.86h1.53Zm0-6.59h3.82a2.53,2.53,0,0,1,2.85,2.63c0,1.75-1.19,2.61-2.85,2.61h-3.82Z"/><path class="cls-1" d="M338.58,27a5.09,5.09,0,0,0,3.66-1.48c1.34-1.35,1.34-2.75,1.34-5.78s0-4.44-1.34-5.79a5.23,5.23,0,0,0-7.31,0c-1.35,1.35-1.35,2.75-1.35,5.79s0,4.43,1.35,5.78A5.07,5.07,0,0,0,338.58,27Zm-2.47-12.15a3.5,3.5,0,0,1,4.94,0c.91.93,1,1.89,1,4.89s-.1,3.95-1,4.88a3.5,3.5,0,0,1-4.94,0c-.9-.93-1-1.89-1-4.88S335.21,15.75,336.11,14.82Z"/><polygon class="cls-1" points="346.17 26.86 347.7 26.86 347.7 20.55 353.96 20.55 353.96 19.18 347.7 19.18 347.7 13.92 355.05 13.92 355.05 12.55 346.17 12.55 346.17 26.86"/><polygon class="cls-1" points="356.82 26.86 365.69 26.86 365.69 25.49 358.34 25.49 358.34 20.33 364.61 20.33 364.61 18.96 358.34 18.96 358.34 13.92 365.69 13.92 365.69 12.55 356.82 12.55 356.82 26.86"/><path class="cls-1" d="M371.58,25.61a4.91,4.91,0,0,1-3.9-1.57l-1,1.05a6.24,6.24,0,0,0,4.9,1.88c3,0,4.94-1.54,4.94-4a3.55,3.55,0,0,0-1.21-2.83,4.52,4.52,0,0,0-2.61-1l-1.56-.24a4.09,4.09,0,0,1-1.93-.78,2.08,2.08,0,0,1-.65-1.65c0-1.59,1.11-2.65,3-2.65A4.51,4.51,0,0,1,374.87,15l1-1a5.77,5.77,0,0,0-4.26-1.57c-2.83,0-4.58,1.61-4.58,4a3.37,3.37,0,0,0,1.08,2.67,5.26,5.26,0,0,0,2.63,1.09l1.67.26a3.08,3.08,0,0,1,1.87.68A2.31,2.31,0,0,1,375,23C375,24.63,373.67,25.61,371.58,25.61Z"/><polygon class="cls-1" points="380.19 12.55 378.67 12.55 378.67 19.7 378.67 26.86 380.19 26.86 380.19 12.55"/><path class="cls-1" d="M392.78,19.71c0-3,0-4.44-1.34-5.79a5.23,5.23,0,0,0-7.31,0c-1.35,1.35-1.35,2.75-1.35,5.79s0,4.43,1.35,5.78a5.25,5.25,0,0,0,7.31,0C392.78,24.14,392.78,22.74,392.78,19.71Zm-2.53,4.88a3.45,3.45,0,0,1-2.47,1,3.49,3.49,0,0,1-2.47-1c-.9-.93-1-1.89-1-4.88s.1-4,1-4.89a3.49,3.49,0,0,1,2.47-1,3.45,3.45,0,0,1,2.47,1c.91.93,1,1.89,1,4.89S391.16,23.66,390.25,24.59Z"/><polygon class="cls-1" points="404.41 23.98 396.82 12.55 395.37 12.55 395.37 26.86 396.9 26.86 396.9 15.39 404.49 26.86 405.94 26.86 405.94 12.55 404.41 12.55 404.41 23.98"/><path class="cls-1" d="M410,23.62h6.24l1.15,3.24H419l-5.24-14.31h-1.28l-5.27,14.31h1.63Zm3.15-8.88,2.65,7.56h-5.34Z"/><polygon class="cls-1" points="428.52 25.49 421.86 25.49 421.86 12.55 420.34 12.55 420.34 26.86 428.52 26.86 428.52 25.49"/><path class="cls-1" d="M209.89,35.44a5,5,0,0,0-3.61-1.32h-4.9v14.3h4.9a5,5,0,0,0,3.61-1.33c1.49-1.48,1.41-4,1.41-6S211.38,36.93,209.89,35.44ZM208.83,46a3.73,3.73,0,0,1-2.81,1H202.9V35.48H206a3.7,3.7,0,0,1,2.81,1.05c1,1,.94,2.83.94,4.58S209.81,45,208.83,46Z"/><polygon class="cls-1" points="213.4 48.42 222.28 48.42 222.28 47.05 214.93 47.05 214.93 41.89 221.19 41.89 221.19 40.52 214.93 40.52 214.93 35.48 222.28 35.48 222.28 34.12 213.4 34.12 213.4 48.42"/><polygon class="cls-1" points="239.01 45.55 231.41 34.12 229.97 34.12 229.97 48.42 231.5 48.42 231.5 36.95 239.09 48.42 240.53 48.42 240.53 34.12 239.01 34.12 239.01 45.55"/><path class="cls-1" d="M251.92,43.58a3.47,3.47,0,1,1-6.93,0V34.12h-1.53V43.7a5,5,0,0,0,10,0V34.12h-1.52Z"/><polygon class="cls-1" points="256.38 48.42 265.25 48.42 265.25 47.05 257.9 47.05 257.9 41.89 264.17 41.89 264.17 40.52 257.9 40.52 257.9 35.48 265.25 35.48 265.25 34.12 256.38 34.12 256.38 48.42"/><polygon class="cls-1" points="276.27 34.12 272.55 45.69 268.84 34.12 267.23 34.12 271.93 48.42 273.17 48.42 277.87 34.12 276.27 34.12"/><path class="cls-1" d="M282.19,34.12l-5.26,14.3h1.63l1.14-3.24H286l1.15,3.24h1.62l-5.24-14.3Zm-2,9.74,2.69-7.55,2.65,7.55Z"/><path class="cls-1" d="M295.79,40.64l-1.57-.24a4.14,4.14,0,0,1-1.93-.78,2.08,2.08,0,0,1-.64-1.65c0-1.58,1.1-2.65,3-2.65A4.5,4.5,0,0,1,298,36.54l1-1A5.76,5.76,0,0,0,294.72,34c-2.83,0-4.58,1.6-4.58,4a3.38,3.38,0,0,0,1.09,2.68,5.18,5.18,0,0,0,2.63,1.08l1.66.26a3.08,3.08,0,0,1,1.87.68,2.32,2.32,0,0,1,.69,1.79c0,1.67-1.29,2.65-3.38,2.65a4.93,4.93,0,0,1-3.9-1.56l-1,1a6.24,6.24,0,0,0,4.9,1.89c3,0,4.94-1.55,4.94-4.06a3.57,3.57,0,0,0-1.2-2.83A4.65,4.65,0,0,0,295.79,40.64Z"/><polygon class="cls-1" points="306.26 35.48 310.39 35.48 310.39 48.42 311.92 48.42 311.92 35.48 316.06 35.48 316.06 34.12 306.26 34.12 306.26 35.48"/><polygon class="cls-1" points="318.48 48.42 327.36 48.42 327.36 47.05 320 47.05 320 41.89 326.27 41.89 326.27 40.52 320 40.52 320 35.48 327.36 35.48 327.36 34.12 318.48 34.12 318.48 48.42"/><path class="cls-1" d="M334.4,35.36a3.38,3.38,0,0,1,3.39,2.89h1.57a4.82,4.82,0,0,0-5-4.25,5.12,5.12,0,0,0-3.66,1.48c-1.35,1.35-1.35,2.75-1.35,5.79s0,4.44,1.35,5.78a5.09,5.09,0,0,0,3.66,1.49,4.82,4.82,0,0,0,5-4.26h-1.53a3.5,3.5,0,0,1-5.9,1.89c-.91-.93-1-1.91-1-4.9s.1-4,1-4.9A3.4,3.4,0,0,1,334.4,35.36Z"/><polygon class="cls-1" points="351.09 45.55 343.49 34.12 342.05 34.12 342.05 48.42 343.57 48.42 343.57 36.95 351.17 48.42 352.61 48.42 352.61 34.12 351.09 34.12 351.09 45.55"/><path class="cls-1" d="M360.3,34a5.07,5.07,0,0,0-3.65,1.48c-1.35,1.35-1.35,2.75-1.35,5.79s0,4.44,1.35,5.78a5.23,5.23,0,0,0,7.31,0c1.35-1.34,1.35-2.75,1.35-5.78s0-4.44-1.35-5.79A5.07,5.07,0,0,0,360.3,34Zm2.47,12.15a3.45,3.45,0,0,1-2.47,1,3.49,3.49,0,0,1-2.47-1c-.9-.93-1-1.89-1-4.88s.1-4,1-4.88a3.48,3.48,0,0,1,4.94,0c.91.92,1,1.88,1,4.88S363.68,45.22,362.77,46.15Z"/><polygon class="cls-1" points="369.52 34.12 368 34.12 368 48.42 376.83 48.42 376.83 47.05 369.52 47.05 369.52 34.12"/><path class="cls-1" d="M382.41,34a5.07,5.07,0,0,0-3.65,1.48c-1.35,1.35-1.35,2.75-1.35,5.79s0,4.44,1.35,5.78a5.23,5.23,0,0,0,7.31,0c1.34-1.34,1.34-2.75,1.34-5.78s0-4.44-1.34-5.79A5.09,5.09,0,0,0,382.41,34Zm2.47,12.15a3.45,3.45,0,0,1-2.47,1,3.49,3.49,0,0,1-2.47-1c-.9-.93-1-1.89-1-4.88s.1-4,1-4.88a3.48,3.48,0,0,1,4.94,0c.91.92,1,1.88,1,4.88S385.79,45.22,384.88,46.15Z"/><path class="cls-1" d="M394.82,42.27h3.52v1.09a3.73,3.73,0,0,1-.81,2.59,3.59,3.59,0,0,1-5.18.22c-.9-.93-1-1.91-1-4.9s.1-4,1-4.88a3.52,3.52,0,0,1,5.95,1.88h1.52a4.86,4.86,0,0,0-5-4.27,5.07,5.07,0,0,0-3.65,1.48c-1.35,1.35-1.35,2.75-1.35,5.79s0,4.44,1.35,5.78a5.07,5.07,0,0,0,3.65,1.49,5.14,5.14,0,0,0,3.82-1.65,5,5,0,0,0,1.22-3.7V40.93h-5Z"/><path class="cls-1" d="M411.47,34.12l-5.26,14.3h1.63L409,45.18h6.25l1.15,3.24H418l-5.24-14.3Zm-2,9.74,2.69-7.55,2.65,7.55Z"/><path class="cls-1" d="M427.67,41.65a4.62,4.62,0,0,0-2.61-1l-1.57-.24a4.14,4.14,0,0,1-1.93-.78,2.08,2.08,0,0,1-.64-1.65c0-1.58,1.11-2.65,3-2.65a4.54,4.54,0,0,1,3.34,1.22l1-1A5.75,5.75,0,0,0,424,34c-2.83,0-4.58,1.6-4.58,4a3.38,3.38,0,0,0,1.09,2.68,5.18,5.18,0,0,0,2.63,1.08l1.67.26a3.13,3.13,0,0,1,1.87.68,2.31,2.31,0,0,1,.68,1.79c0,1.67-1.29,2.65-3.38,2.65a4.91,4.91,0,0,1-3.89-1.56l-1.05,1a6.26,6.26,0,0,0,4.9,1.89c3,0,4.94-1.55,4.94-4.06A3.57,3.57,0,0,0,427.67,41.65Z"/><polygon class="cls-1" points="402.55 41.27 402.55 48.42 404.08 48.42 404.08 34.12 402.55 34.12 402.55 41.27"/><polygon class="cls-1" points="402.55 33.21 405 31.71 405 30.15 402.55 31.65 402.55 33.21"/><path class="cls-1" d="M0,30.54,20.36,50.9,30.54,40.72,40.72,50.9l6.59-6.59V16.76L30.54,0Zm40.72,0L30.54,40.72,20.36,30.54,30.54,20.36Z"/></g></g></svg>